<mxfile host="app.diagrams.net" modified="2023-12-23T10:11:53.011Z" agent="Mozilla/5.0 (Macintosh; Intel Mac OS X 10_15_7) AppleWebKit/537.36 (KHTML, like Gecko) Chrome/120.0.0.0 Safari/537.36" etag="-P9JxTltFKJlOv3Wvu3Z" version="22.1.11" type="github">
  <diagram name="Page-1" id="aRuCgZtnoSvNG3mgIwN0">
    <mxGraphModel dx="4130" dy="2709" grid="1" gridSize="10" guides="1" tooltips="1" connect="1" arrows="1" fold="1" page="1" pageScale="1" pageWidth="827" pageHeight="1169" math="0" shadow="0">
      <root>
        <mxCell id="0" />
        <mxCell id="1" parent="0" />
        <mxCell id="_Dg9AQlfLl--0kB6ONo2-64" value="Public subnet" style="points=[[0,0],[0.25,0],[0.5,0],[0.75,0],[1,0],[1,0.25],[1,0.5],[1,0.75],[1,1],[0.75,1],[0.5,1],[0.25,1],[0,1],[0,0.75],[0,0.5],[0,0.25]];outlineConnect=0;gradientColor=none;html=1;whiteSpace=wrap;fontSize=12;fontStyle=0;container=1;pointerEvents=0;collapsible=0;recursiveResize=0;shape=mxgraph.aws4.group;grIcon=mxgraph.aws4.group_security_group;grStroke=0;strokeColor=#7AA116;fillColor=#F2F6E8;verticalAlign=top;align=left;spacingLeft=30;fontColor=#248814;dashed=0;" parent="1" vertex="1">
          <mxGeometry x="204" y="455" width="120" height="118" as="geometry" />
        </mxCell>
        <mxCell id="_Dg9AQlfLl--0kB6ONo2-65" value="" style="outlineConnect=0;dashed=0;verticalLabelPosition=bottom;verticalAlign=top;align=center;html=1;shape=mxgraph.aws3.ec2;fillColor=#F58534;gradientColor=none;" parent="_Dg9AQlfLl--0kB6ONo2-64" vertex="1">
          <mxGeometry x="21.75" y="20" width="66.5" height="60" as="geometry" />
        </mxCell>
        <mxCell id="_Dg9AQlfLl--0kB6ONo2-66" value="Public subnet" style="points=[[0,0],[0.25,0],[0.5,0],[0.75,0],[1,0],[1,0.25],[1,0.5],[1,0.75],[1,1],[0.75,1],[0.5,1],[0.25,1],[0,1],[0,0.75],[0,0.5],[0,0.25]];outlineConnect=0;gradientColor=none;html=1;whiteSpace=wrap;fontSize=12;fontStyle=0;container=1;pointerEvents=0;collapsible=0;recursiveResize=0;shape=mxgraph.aws4.group;grIcon=mxgraph.aws4.group_security_group;grStroke=0;strokeColor=#7AA116;fillColor=#F2F6E8;verticalAlign=top;align=left;spacingLeft=30;fontColor=#248814;dashed=0;" parent="1" vertex="1">
          <mxGeometry x="484" y="455" width="120" height="118" as="geometry" />
        </mxCell>
        <mxCell id="_Dg9AQlfLl--0kB6ONo2-67" value="" style="outlineConnect=0;dashed=0;verticalLabelPosition=bottom;verticalAlign=top;align=center;html=1;shape=mxgraph.aws3.ec2;fillColor=#F58534;gradientColor=none;" parent="_Dg9AQlfLl--0kB6ONo2-66" vertex="1">
          <mxGeometry x="21.75" y="20" width="66.5" height="60" as="geometry" />
        </mxCell>
        <mxCell id="_Dg9AQlfLl--0kB6ONo2-68" value="Private subnet" style="points=[[0,0],[0.25,0],[0.5,0],[0.75,0],[1,0],[1,0.25],[1,0.5],[1,0.75],[1,1],[0.75,1],[0.5,1],[0.25,1],[0,1],[0,0.75],[0,0.5],[0,0.25]];outlineConnect=0;gradientColor=none;html=1;whiteSpace=wrap;fontSize=12;fontStyle=0;container=1;pointerEvents=0;collapsible=0;recursiveResize=0;shape=mxgraph.aws4.group;grIcon=mxgraph.aws4.group_security_group;grStroke=0;strokeColor=#00A4A6;fillColor=#E6F6F7;verticalAlign=top;align=left;spacingLeft=30;fontColor=#147EBA;dashed=0;" parent="1" vertex="1">
          <mxGeometry x="204" y="761" width="120" height="140" as="geometry" />
        </mxCell>
        <mxCell id="_Dg9AQlfLl--0kB6ONo2-70" value="" style="outlineConnect=0;dashed=0;verticalLabelPosition=bottom;verticalAlign=top;align=center;html=1;shape=mxgraph.aws3.ec2;fillColor=#F58534;gradientColor=none;" parent="_Dg9AQlfLl--0kB6ONo2-68" vertex="1">
          <mxGeometry x="21.75" y="35" width="66.5" height="60" as="geometry" />
        </mxCell>
        <mxCell id="_Dg9AQlfLl--0kB6ONo2-74" value="Private subnet" style="points=[[0,0],[0.25,0],[0.5,0],[0.75,0],[1,0],[1,0.25],[1,0.5],[1,0.75],[1,1],[0.75,1],[0.5,1],[0.25,1],[0,1],[0,0.75],[0,0.5],[0,0.25]];outlineConnect=0;gradientColor=none;html=1;whiteSpace=wrap;fontSize=12;fontStyle=0;container=1;pointerEvents=0;collapsible=0;recursiveResize=0;shape=mxgraph.aws4.group;grIcon=mxgraph.aws4.group_security_group;grStroke=0;strokeColor=#00A4A6;fillColor=#E6F6F7;verticalAlign=top;align=left;spacingLeft=30;fontColor=#147EBA;dashed=0;" parent="1" vertex="1">
          <mxGeometry x="484" y="761" width="120" height="140" as="geometry" />
        </mxCell>
        <mxCell id="_Dg9AQlfLl--0kB6ONo2-75" value="" style="outlineConnect=0;dashed=0;verticalLabelPosition=bottom;verticalAlign=top;align=center;html=1;shape=mxgraph.aws3.ec2;fillColor=#F58534;gradientColor=none;" parent="_Dg9AQlfLl--0kB6ONo2-74" vertex="1">
          <mxGeometry x="21.75" y="35" width="66.5" height="60" as="geometry" />
        </mxCell>
        <mxCell id="_Dg9AQlfLl--0kB6ONo2-156" style="edgeStyle=orthogonalEdgeStyle;rounded=0;orthogonalLoop=1;jettySize=auto;html=1;" parent="1" source="_Dg9AQlfLl--0kB6ONo2-84" edge="1">
          <mxGeometry relative="1" as="geometry">
            <mxPoint x="84" y="865" as="targetPoint" />
          </mxGeometry>
        </mxCell>
        <mxCell id="_Dg9AQlfLl--0kB6ONo2-84" value="" style="sketch=0;outlineConnect=0;fontColor=#232F3E;gradientColor=none;fillColor=#E7157B;strokeColor=none;dashed=0;verticalLabelPosition=bottom;verticalAlign=top;align=center;html=1;fontSize=12;fontStyle=0;aspect=fixed;pointerEvents=1;shape=mxgraph.aws4.endpoint;" parent="1" vertex="1">
          <mxGeometry x="307.26" y="235" width="60" height="60" as="geometry" />
        </mxCell>
        <mxCell id="_Dg9AQlfLl--0kB6ONo2-85" style="edgeStyle=orthogonalEdgeStyle;rounded=0;orthogonalLoop=1;jettySize=auto;html=1;entryX=0.5;entryY=0;entryDx=0;entryDy=0;" parent="1" source="_Dg9AQlfLl--0kB6ONo2-87" target="_Dg9AQlfLl--0kB6ONo2-64" edge="1">
          <mxGeometry relative="1" as="geometry" />
        </mxCell>
        <mxCell id="_Dg9AQlfLl--0kB6ONo2-86" style="edgeStyle=orthogonalEdgeStyle;rounded=0;orthogonalLoop=1;jettySize=auto;html=1;entryX=0.5;entryY=0;entryDx=0;entryDy=0;" parent="1" source="_Dg9AQlfLl--0kB6ONo2-87" target="_Dg9AQlfLl--0kB6ONo2-66" edge="1">
          <mxGeometry relative="1" as="geometry" />
        </mxCell>
        <mxCell id="_Dg9AQlfLl--0kB6ONo2-87" value="" style="outlineConnect=0;dashed=0;verticalLabelPosition=bottom;verticalAlign=top;align=center;html=1;shape=mxgraph.aws3.application_load_balancer;fillColor=#F58534;gradientColor=none;" parent="1" vertex="1">
          <mxGeometry x="369.26" y="305" width="69" height="72" as="geometry" />
        </mxCell>
        <mxCell id="_Dg9AQlfLl--0kB6ONo2-88" style="edgeStyle=orthogonalEdgeStyle;rounded=0;orthogonalLoop=1;jettySize=auto;html=1;entryX=0.75;entryY=0;entryDx=0;entryDy=0;" parent="1" source="_Dg9AQlfLl--0kB6ONo2-90" target="_Dg9AQlfLl--0kB6ONo2-68" edge="1">
          <mxGeometry relative="1" as="geometry" />
        </mxCell>
        <mxCell id="_Dg9AQlfLl--0kB6ONo2-89" style="edgeStyle=orthogonalEdgeStyle;rounded=0;orthogonalLoop=1;jettySize=auto;html=1;entryX=0.5;entryY=0;entryDx=0;entryDy=0;" parent="1" source="_Dg9AQlfLl--0kB6ONo2-90" target="_Dg9AQlfLl--0kB6ONo2-74" edge="1">
          <mxGeometry relative="1" as="geometry" />
        </mxCell>
        <mxCell id="_Dg9AQlfLl--0kB6ONo2-90" value="" style="sketch=0;outlineConnect=0;fontColor=#232F3E;gradientColor=none;fillColor=#8C4FFF;strokeColor=none;dashed=0;verticalLabelPosition=bottom;verticalAlign=top;align=center;html=1;fontSize=12;fontStyle=0;aspect=fixed;pointerEvents=1;shape=mxgraph.aws4.application_load_balancer;" parent="1" vertex="1">
          <mxGeometry x="376.5" y="660" width="55" height="55" as="geometry" />
        </mxCell>
        <mxCell id="_Dg9AQlfLl--0kB6ONo2-91" value="&lt;div class=&quot;column-row&quot; style=&quot;height: 36px;&quot;&gt;&lt;div class=&quot;column-sub-section-header&quot;&gt;ap-south-1a&lt;/div&gt;&lt;/div&gt;" style="fillColor=none;strokeColor=#147EBA;dashed=1;verticalAlign=top;fontStyle=0;fontColor=#147EBA;whiteSpace=wrap;html=1;" parent="1" vertex="1">
          <mxGeometry x="190" y="430" width="150" height="480" as="geometry" />
        </mxCell>
        <mxCell id="_Dg9AQlfLl--0kB6ONo2-96" value="" style="outlineConnect=0;dashed=0;verticalLabelPosition=bottom;verticalAlign=top;align=center;html=1;shape=mxgraph.aws3.internet_gateway;fillColor=#F58536;gradientColor=none;" parent="1" vertex="1">
          <mxGeometry x="367.26" y="75" width="71" height="72" as="geometry" />
        </mxCell>
        <mxCell id="_Dg9AQlfLl--0kB6ONo2-98" value="" style="outlineConnect=0;dashed=0;verticalLabelPosition=bottom;verticalAlign=top;align=center;html=1;shape=mxgraph.aws3.route_53;fillColor=#F58536;gradientColor=none;" parent="1" vertex="1">
          <mxGeometry x="124" y="961" width="50.5" height="60.25" as="geometry" />
        </mxCell>
        <mxCell id="_Dg9AQlfLl--0kB6ONo2-99" value="my-vpc-01/ 10.0.0.0/16" style="sketch=0;outlineConnect=0;gradientColor=none;html=1;whiteSpace=wrap;fontSize=12;fontStyle=0;shape=mxgraph.aws4.group;grIcon=mxgraph.aws4.group_vpc;strokeColor=#00CC00;fillColor=none;verticalAlign=top;align=left;spacingLeft=30;fontColor=#879196;dashed=0;" parent="1" vertex="1">
          <mxGeometry x="50" y="70" width="720" height="1115" as="geometry" />
        </mxCell>
        <mxCell id="_Dg9AQlfLl--0kB6ONo2-100" style="edgeStyle=orthogonalEdgeStyle;rounded=0;orthogonalLoop=1;jettySize=auto;html=1;entryX=0.5;entryY=0;entryDx=0;entryDy=0;entryPerimeter=0;" parent="1" source="_Dg9AQlfLl--0kB6ONo2-96" target="_Dg9AQlfLl--0kB6ONo2-87" edge="1">
          <mxGeometry relative="1" as="geometry">
            <mxPoint x="403" y="215" as="targetPoint" />
          </mxGeometry>
        </mxCell>
        <mxCell id="_Dg9AQlfLl--0kB6ONo2-102" value="" style="endArrow=classic;html=1;rounded=0;exitX=0.5;exitY=1;exitDx=0;exitDy=0;exitPerimeter=0;" parent="1" source="_Dg9AQlfLl--0kB6ONo2-65" target="_Dg9AQlfLl--0kB6ONo2-90" edge="1">
          <mxGeometry width="50" height="50" relative="1" as="geometry">
            <mxPoint x="4" y="765" as="sourcePoint" />
            <mxPoint x="54" y="715" as="targetPoint" />
          </mxGeometry>
        </mxCell>
        <mxCell id="_Dg9AQlfLl--0kB6ONo2-103" value="" style="endArrow=classic;html=1;rounded=0;exitX=0.5;exitY=1;exitDx=0;exitDy=0;exitPerimeter=0;" parent="1" source="_Dg9AQlfLl--0kB6ONo2-67" target="_Dg9AQlfLl--0kB6ONo2-90" edge="1">
          <mxGeometry width="50" height="50" relative="1" as="geometry">
            <mxPoint x="574" y="585" as="sourcePoint" />
            <mxPoint x="434" y="615" as="targetPoint" />
          </mxGeometry>
        </mxCell>
        <mxCell id="_Dg9AQlfLl--0kB6ONo2-105" value="ap-south-01" style="points=[[0,0],[0.25,0],[0.5,0],[0.75,0],[1,0],[1,0.25],[1,0.5],[1,0.75],[1,1],[0.75,1],[0.5,1],[0.25,1],[0,1],[0,0.75],[0,0.5],[0,0.25]];outlineConnect=0;gradientColor=none;html=1;whiteSpace=wrap;fontSize=12;fontStyle=0;container=1;pointerEvents=0;collapsible=0;recursiveResize=0;shape=mxgraph.aws4.group;grIcon=mxgraph.aws4.group_region;strokeColor=#00A4A6;fillColor=none;verticalAlign=top;align=left;spacingLeft=30;fontColor=#147EBA;dashed=1;" parent="1" vertex="1">
          <mxGeometry x="19.75" y="40" width="780.25" height="1170" as="geometry" />
        </mxCell>
        <mxCell id="_Dg9AQlfLl--0kB6ONo2-150" value="" style="rounded=1;arcSize=10;dashed=1;fillColor=none;gradientColor=none;dashPattern=1 1;strokeWidth=2;strokeColor=#FF8000;" parent="_Dg9AQlfLl--0kB6ONo2-105" vertex="1">
          <mxGeometry x="140.25" y="365" width="540" height="180" as="geometry" />
        </mxCell>
        <mxCell id="_Dg9AQlfLl--0kB6ONo2-114" value="ALB" style="text;html=1;strokeColor=none;fillColor=none;align=center;verticalAlign=middle;whiteSpace=wrap;rounded=0;" parent="1" vertex="1">
          <mxGeometry x="375.26" y="355" width="60" height="30" as="geometry" />
        </mxCell>
        <mxCell id="_Dg9AQlfLl--0kB6ONo2-112" value="IG" style="text;html=1;strokeColor=none;fillColor=none;align=center;verticalAlign=middle;whiteSpace=wrap;rounded=0;" parent="1" vertex="1">
          <mxGeometry x="374" y="115" width="60" height="30" as="geometry" />
        </mxCell>
        <mxCell id="_Dg9AQlfLl--0kB6ONo2-124" value="route&lt;br&gt;53" style="text;html=1;strokeColor=none;fillColor=none;align=center;verticalAlign=middle;whiteSpace=wrap;rounded=0;" parent="1" vertex="1">
          <mxGeometry x="104" y="955.25" width="60" height="30" as="geometry" />
        </mxCell>
        <mxCell id="_Dg9AQlfLl--0kB6ONo2-128" value="Private subnet" style="points=[[0,0],[0.25,0],[0.5,0],[0.75,0],[1,0],[1,0.25],[1,0.5],[1,0.75],[1,1],[0.75,1],[0.5,1],[0.25,1],[0,1],[0,0.75],[0,0.5],[0,0.25]];outlineConnect=0;gradientColor=none;html=1;whiteSpace=wrap;fontSize=12;fontStyle=0;container=1;pointerEvents=0;collapsible=0;recursiveResize=0;shape=mxgraph.aws4.group;grIcon=mxgraph.aws4.group_security_group;grStroke=0;strokeColor=#00A4A6;fillColor=#E6F6F7;verticalAlign=top;align=left;spacingLeft=30;fontColor=#147EBA;dashed=0;" parent="1" vertex="1">
          <mxGeometry x="325.26" y="951" width="158.74" height="140" as="geometry" />
        </mxCell>
        <mxCell id="_Dg9AQlfLl--0kB6ONo2-131" value="" style="outlineConnect=0;dashed=0;verticalLabelPosition=bottom;verticalAlign=top;align=center;html=1;shape=mxgraph.aws3.ec2;fillColor=#F58534;gradientColor=none;" parent="_Dg9AQlfLl--0kB6ONo2-128" vertex="1">
          <mxGeometry x="45.25" y="40" width="66.5" height="60" as="geometry" />
        </mxCell>
        <mxCell id="_Dg9AQlfLl--0kB6ONo2-69" style="edgeStyle=orthogonalEdgeStyle;rounded=0;orthogonalLoop=1;jettySize=auto;html=1;entryX=0;entryY=0.21;entryDx=0;entryDy=0;entryPerimeter=0;" parent="1" source="_Dg9AQlfLl--0kB6ONo2-70" target="_Dg9AQlfLl--0kB6ONo2-131" edge="1">
          <mxGeometry relative="1" as="geometry">
            <mxPoint x="259" y="941" as="targetPoint" />
          </mxGeometry>
        </mxCell>
        <mxCell id="_Dg9AQlfLl--0kB6ONo2-137" style="edgeStyle=orthogonalEdgeStyle;rounded=0;orthogonalLoop=1;jettySize=auto;html=1;entryX=1;entryY=0.21;entryDx=0;entryDy=0;entryPerimeter=0;" parent="1" source="_Dg9AQlfLl--0kB6ONo2-75" target="_Dg9AQlfLl--0kB6ONo2-131" edge="1">
          <mxGeometry relative="1" as="geometry">
            <mxPoint x="474" y="1011" as="targetPoint" />
          </mxGeometry>
        </mxCell>
        <mxCell id="_Dg9AQlfLl--0kB6ONo2-133" value="&lt;b&gt;DB-tire&lt;/b&gt;" style="text;html=1;strokeColor=none;fillColor=none;align=center;verticalAlign=middle;whiteSpace=wrap;rounded=0;" parent="1" vertex="1">
          <mxGeometry x="497.89" y="1006" width="60" height="30" as="geometry" />
        </mxCell>
        <mxCell id="_Dg9AQlfLl--0kB6ONo2-72" value="&lt;b&gt;app-tire&lt;/b&gt;" style="text;html=1;strokeColor=none;fillColor=none;align=center;verticalAlign=middle;whiteSpace=wrap;rounded=0;" parent="1" vertex="1">
          <mxGeometry x="634" y="816" width="60" height="30" as="geometry" />
        </mxCell>
        <mxCell id="_Dg9AQlfLl--0kB6ONo2-139" value="&lt;div class=&quot;column-row&quot; style=&quot;height: 36px;&quot;&gt;&lt;div class=&quot;column-sub-section-header&quot;&gt;ap-south-1b&lt;br&gt;&lt;/div&gt;&lt;/div&gt;" style="fillColor=none;strokeColor=#147EBA;dashed=1;verticalAlign=top;fontStyle=0;fontColor=#147EBA;whiteSpace=wrap;html=1;" parent="1" vertex="1">
          <mxGeometry x="465.75" y="430" width="154.25" height="471" as="geometry" />
        </mxCell>
        <mxCell id="_Dg9AQlfLl--0kB6ONo2-145" value="&lt;div class=&quot;column-row&quot; style=&quot;height: 36px;&quot;&gt;&lt;div class=&quot;column-sub-section-header&quot;&gt;ap-south-1a&lt;/div&gt;&lt;/div&gt;" style="fillColor=none;strokeColor=#147EBA;dashed=1;verticalAlign=top;fontStyle=0;fontColor=#147EBA;whiteSpace=wrap;html=1;" parent="1" vertex="1">
          <mxGeometry x="312.64" y="931" width="185.25" height="180" as="geometry" />
        </mxCell>
        <mxCell id="_Dg9AQlfLl--0kB6ONo2-146" value="&lt;b&gt;web-tire&lt;br&gt;&lt;/b&gt;" style="text;html=1;strokeColor=none;fillColor=none;align=center;verticalAlign=middle;whiteSpace=wrap;rounded=0;" parent="1" vertex="1">
          <mxGeometry x="634" y="480" width="60" height="30" as="geometry" />
        </mxCell>
        <mxCell id="_Dg9AQlfLl--0kB6ONo2-115" value="NLB&lt;br&gt;&lt;br&gt;" style="text;html=1;strokeColor=none;fillColor=none;align=center;verticalAlign=middle;whiteSpace=wrap;rounded=0;" parent="1" vertex="1">
          <mxGeometry x="371.5" y="650" width="60" height="30" as="geometry" />
        </mxCell>
        <mxCell id="_Dg9AQlfLl--0kB6ONo2-151" value="" style="rounded=1;arcSize=10;dashed=1;fillColor=none;gradientColor=none;dashPattern=1 1;strokeWidth=2;strokeColor=#FF8000;" parent="1" vertex="1">
          <mxGeometry x="154" y="741" width="540" height="180" as="geometry" />
        </mxCell>
        <mxCell id="_Dg9AQlfLl--0kB6ONo2-152" value="" style="rounded=1;arcSize=10;dashed=1;fillColor=none;gradientColor=none;dashPattern=1 1;strokeWidth=2;strokeColor=#FF8000;" parent="1" vertex="1">
          <mxGeometry x="297.26" y="941" width="256.74" height="180" as="geometry" />
        </mxCell>
        <mxCell id="_Dg9AQlfLl--0kB6ONo2-154" style="edgeStyle=orthogonalEdgeStyle;rounded=0;orthogonalLoop=1;jettySize=auto;html=1;exitX=0.5;exitY=1;exitDx=0;exitDy=0;" parent="1" edge="1">
          <mxGeometry relative="1" as="geometry">
            <mxPoint x="134" y="1051.25" as="sourcePoint" />
            <mxPoint x="134" y="1051.25" as="targetPoint" />
          </mxGeometry>
        </mxCell>
        <mxCell id="_Dg9AQlfLl--0kB6ONo2-117" value="End&lt;br&gt;Point&lt;br&gt;" style="text;html=1;strokeColor=none;fillColor=none;align=center;verticalAlign=middle;whiteSpace=wrap;rounded=0;" parent="1" vertex="1">
          <mxGeometry x="307.26" y="295" width="60" height="30" as="geometry" />
        </mxCell>
        <mxCell id="_Dg9AQlfLl--0kB6ONo2-155" value="" style="rounded=1;arcSize=10;dashed=1;fillColor=none;gradientColor=none;dashPattern=1 1;strokeWidth=2;strokeColor=#FF33FF;" parent="1" vertex="1">
          <mxGeometry x="110" y="660" width="620" height="490" as="geometry" />
        </mxCell>
        <mxCell id="_Dg9AQlfLl--0kB6ONo2-161" value="" style="endArrow=classic;html=1;rounded=0;entryX=0;entryY=0.5;entryDx=0;entryDy=0;" parent="1" target="_Dg9AQlfLl--0kB6ONo2-155" edge="1">
          <mxGeometry width="50" height="50" relative="1" as="geometry">
            <mxPoint x="84" y="860" as="sourcePoint" />
            <mxPoint x="-116" y="835" as="targetPoint" />
          </mxGeometry>
        </mxCell>
        <mxCell id="_Dg9AQlfLl--0kB6ONo2-101" value="`" style="sketch=0;outlineConnect=0;gradientColor=none;html=1;whiteSpace=wrap;fontSize=12;fontStyle=0;shape=mxgraph.aws4.group;grIcon=mxgraph.aws4.group_aws_cloud;strokeColor=#AAB7B8;fillColor=none;verticalAlign=top;align=left;spacingLeft=30;fontColor=#AAB7B8;dashed=0;" parent="1" vertex="1">
          <mxGeometry x="-930" y="18.75" width="851" height="1212.5" as="geometry" />
        </mxCell>
        <mxCell id="yh78TfkuKiKUqgtQuCIe-8" style="edgeStyle=orthogonalEdgeStyle;rounded=0;orthogonalLoop=1;jettySize=auto;html=1;entryX=0.475;entryY=0.005;entryDx=0;entryDy=0;entryPerimeter=0;" parent="1" source="yh78TfkuKiKUqgtQuCIe-2" target="_Dg9AQlfLl--0kB6ONo2-99" edge="1">
          <mxGeometry relative="1" as="geometry">
            <mxPoint x="380" y="-30" as="targetPoint" />
          </mxGeometry>
        </mxCell>
        <mxCell id="yh78TfkuKiKUqgtQuCIe-2" value="" style="outlineConnect=0;dashed=0;verticalLabelPosition=bottom;verticalAlign=top;align=center;html=1;shape=mxgraph.aws3.internet_3;fillColor=#D2D3D3;gradientColor=none;" parent="1" vertex="1">
          <mxGeometry x="363.01" y="-90" width="79.5" height="54" as="geometry" />
        </mxCell>
        <mxCell id="3UgUi8umlS0cr7r5IpCt-2" style="edgeStyle=orthogonalEdgeStyle;rounded=0;orthogonalLoop=1;jettySize=auto;html=1;" parent="1" source="3UgUi8umlS0cr7r5IpCt-1" edge="1">
          <mxGeometry relative="1" as="geometry">
            <mxPoint x="360" y="-50" as="targetPoint" />
          </mxGeometry>
        </mxCell>
        <mxCell id="3UgUi8umlS0cr7r5IpCt-1" value="users" style="sketch=0;outlineConnect=0;gradientColor=none;fontColor=#545B64;strokeColor=none;fillColor=#191596;dashed=0;verticalLabelPosition=bottom;verticalAlign=top;align=center;html=1;fontSize=12;fontStyle=0;aspect=fixed;shape=mxgraph.aws4.illustration_users;pointerEvents=1" parent="1" vertex="1">
          <mxGeometry x="204" y="-130" width="100" height="100" as="geometry" />
        </mxCell>
        <mxCell id="qUojtfBCu0a4uyf0v8Ae-13" style="edgeStyle=orthogonalEdgeStyle;rounded=0;orthogonalLoop=1;jettySize=auto;html=1;entryX=0.383;entryY=0.064;entryDx=0;entryDy=0;entryPerimeter=0;" parent="1" target="_Dg9AQlfLl--0kB6ONo2-68" edge="1">
          <mxGeometry relative="1" as="geometry">
            <mxPoint x="250" y="730" as="targetPoint" />
            <mxPoint x="369" y="595" as="sourcePoint" />
          </mxGeometry>
        </mxCell>
        <mxCell id="qUojtfBCu0a4uyf0v8Ae-1" value="Subnet:ACL" style="shape=mxgraph.ibm.box;prType=subnet;fontStyle=0;verticalAlign=top;align=left;spacingLeft=32;spacingTop=4;fillColor=#E6F0E2;rounded=0;whiteSpace=wrap;html=1;strokeColor=#00882B;strokeWidth=1;dashed=0;container=1;spacing=-4;collapsible=0;expand=0;recursiveResize=0;" parent="1" vertex="1">
          <mxGeometry x="360.27" y="550" width="90" height="90" as="geometry" />
        </mxCell>
        <mxCell id="qUojtfBCu0a4uyf0v8Ae-9" style="edgeStyle=orthogonalEdgeStyle;rounded=0;orthogonalLoop=1;jettySize=auto;html=1;" parent="qUojtfBCu0a4uyf0v8Ae-1" edge="1">
          <mxGeometry relative="1" as="geometry">
            <mxPoint x="200" y="210" as="targetPoint" />
            <mxPoint x="91" y="50" as="sourcePoint" />
          </mxGeometry>
        </mxCell>
        <mxCell id="qUojtfBCu0a4uyf0v8Ae-2" value="" style="outlineConnect=0;dashed=0;verticalLabelPosition=bottom;verticalAlign=top;align=center;html=1;shape=mxgraph.aws3.ec2;fillColor=#F58534;gradientColor=none;" parent="qUojtfBCu0a4uyf0v8Ae-1" vertex="1">
          <mxGeometry x="24.189999999999998" y="23" width="41.63" height="44" as="geometry" />
        </mxCell>
        <mxCell id="qUojtfBCu0a4uyf0v8Ae-3" value="bastion host" style="text;html=1;strokeColor=none;fillColor=none;align=center;verticalAlign=middle;whiteSpace=wrap;rounded=0;" parent="qUojtfBCu0a4uyf0v8Ae-1" vertex="1">
          <mxGeometry x="5" y="60" width="90" height="34" as="geometry" />
        </mxCell>
        <mxCell id="_Dg9AQlfLl--0kB6ONo2-97" value="" style="rounded=1;arcSize=10;dashed=1;strokeColor=#F59D56;fillColor=none;gradientColor=none;dashPattern=8 4;strokeWidth=2;" parent="1" vertex="1">
          <mxGeometry x="144" y="715" width="556" height="415" as="geometry" />
        </mxCell>
      </root>
    </mxGraphModel>
  </diagram>
</mxfile>
